<?xml version="1.0" standalone="no"?>
<!DOCTYPE svg PUBLIC "-//W3C//DTD SVG 20010904//EN"
 "http://www.w3.org/TR/2001/REC-SVG-20010904/DTD/svg10.dtd">
<svg version="1.0" xmlns="http://www.w3.org/2000/svg"
 width="1000.000000pt" height="1000.000000pt" viewBox="0 0 1000.000000 1000.000000"
 preserveAspectRatio="xMidYMid meet">

<g transform="translate(0.000000,1000.000000) scale(0.100000,-0.100000)"
fill="#000000" stroke="none">
<path d="M4186 9576 c-21 -8 -50 -26 -65 -39 -14 -14 -40 -32 -57 -40 -35 -18
-60 -44 -50 -54 4 -4 16 -2 26 5 11 7 20 8 20 3 0 -5 -6 -11 -12 -14 -8 -3 -3
-9 12 -15 23 -10 22 -13 -5 -17 -21 -3 -69 -34 -55 -35 9 -1 5 -5 -8 -11 -13
-5 -28 -7 -32 -4 -5 3 -14 -11 -20 -30 -7 -22 -16 -33 -23 -28 -7 4 -6 -1 2
-10 8 -10 11 -20 7 -24 -3 -3 -6 -1 -6 5 0 7 -3 12 -7 12 -9 0 -33 -49 -33
-67 0 -7 -4 -13 -9 -13 -5 0 -13 -15 -17 -32 -4 -18 -9 -36 -10 -40 -1 -5 -2
-15 -3 -23 -1 -11 -6 -12 -27 -5 -39 15 -54 12 -54 -11 0 -13 -4 -18 -12 -13
-6 4 -8 3 -5 -3 11 -17 -17 -63 -41 -69 -12 -4 -37 1 -56 10 -35 16 -65 13
-67 -8 0 -6 -4 -1 -9 12 -7 17 -16 22 -34 19 -14 -1 -28 -6 -32 -10 -4 -4 -15
-7 -25 -7 -9 0 -19 -7 -23 -15 -3 -8 -12 -15 -21 -15 -8 0 -15 -9 -15 -20 0
-12 -10 -24 -24 -30 -13 -5 -34 -19 -45 -31 -33 -35 -27 0 9 52 16 24 30 56
30 72 0 16 5 27 14 27 17 0 33 41 41 105 6 50 6 50 -9 20 -8 -16 -21 -46 -29
-67 -12 -27 -23 -38 -46 -43 -35 -7 -41 -22 -11 -27 22 -3 23 -1 -34 -92 -25
-41 -27 -51 -17 -73 9 -21 14 -23 26 -13 8 7 3 -8 -11 -33 -14 -26 -25 -54
-24 -64 4 -30 0 -43 -10 -43 -5 0 -10 9 -10 20 0 25 -19 27 -19 3 -1 -42 -5
-53 -18 -53 -8 0 -13 -12 -13 -32 0 -25 -3 -29 -10 -18 -8 12 -10 9 -10 -13 0
-16 4 -26 9 -23 5 3 11 -8 15 -24 4 -21 11 -30 25 -30 15 0 19 5 14 18 -3 9
-3 14 1 11 12 -11 17 -121 6 -134 -8 -10 -8 -15 0 -20 8 -5 8 -11 -1 -21 -7
-8 -8 -24 -4 -41 l8 -28 7 25 c5 16 8 19 9 8 1 -12 9 -18 26 -18 32 0 31 -7
-1 -37 -21 -19 -25 -29 -19 -51 11 -42 8 -174 -5 -206 -7 -20 -8 -32 0 -40 14
-14 13 -63 -1 -68 -7 -2 -12 -26 -12 -53 0 -28 -2 -40 -4 -27 -3 12 -9 22 -15
22 -6 0 -8 -9 -5 -20 3 -11 1 -20 -3 -20 -5 0 -14 -33 -20 -72 -14 -84 -24
-100 -58 -96 -22 3 -27 -3 -43 -52 -23 -69 -24 -110 -4 -110 9 0 15 -9 15 -23
0 -13 5 -28 11 -34 14 -14 23 -73 10 -73 -6 0 -13 -16 -17 -35 -3 -19 -9 -35
-13 -35 -3 0 -15 20 -26 43 -18 38 -20 61 -18 232 2 202 5 243 21 315 6 25 15
82 22 128 6 45 20 108 30 140 11 31 20 71 20 87 0 17 4 36 9 43 13 21 1 62
-16 55 -13 -5 -13 -1 0 30 9 19 13 38 10 40 -2 3 0 14 6 26 7 12 7 22 2 26 -5
3 -13 20 -16 38 -4 17 -11 37 -16 43 -5 6 -10 27 -11 47 -2 21 -6 37 -11 37
-4 0 -8 -2 -8 -5 -5 -17 13 -148 23 -170 8 -19 8 -35 -1 -65 -12 -42 -7 -85
10 -75 5 4 12 -1 16 -10 3 -10 1 -20 -5 -24 -13 -8 -47 -149 -67 -279 -8 -57
-19 -112 -24 -121 -6 -9 -15 -80 -21 -157 -12 -155 0 -365 24 -412 7 -15 16
-51 20 -80 12 -92 47 -185 101 -267 29 -44 69 -111 90 -148 20 -37 55 -91 76
-120 21 -28 41 -67 45 -87 10 -67 14 -76 35 -101 25 -28 49 -80 49 -107 0 -10
9 -27 20 -37 19 -17 20 -31 20 -204 0 -184 -8 -237 -38 -274 -8 -9 -9 -18 -4
-21 9 -6 41 52 56 102 4 12 12 20 17 17 5 -4 8 32 8 85 -1 50 -6 93 -10 96
-12 7 -11 44 1 44 6 0 10 -11 10 -24 0 -14 4 -28 10 -31 13 -8 24 39 17 81 -3
18 -2 34 4 34 5 0 9 10 9 23 0 12 7 30 15 40 7 11 17 36 20 58 4 21 11 39 16
39 5 0 9 12 9 27 0 15 10 37 22 50 12 13 16 23 9 23 -9 0 -7 5 3 16 9 9 15 29
14 45 -2 20 4 34 20 45 12 8 22 22 22 30 0 8 6 17 14 20 16 6 20 74 4 74 -5 0
-2 7 6 16 9 8 20 13 25 10 5 -4 11 -1 13 5 5 15 48 2 48 -15 0 -20 37 -49 54
-43 12 5 14 16 10 50 -5 32 -2 51 10 69 16 25 25 126 12 147 -4 6 7 25 24 43
29 29 31 36 28 87 -1 31 -1 57 2 59 3 2 16 -1 30 -6 14 -5 30 -10 35 -12 6 -1
18 -9 28 -18 13 -11 46 -17 120 -21 57 -4 102 -10 103 -16 0 -5 4 -18 8 -28 5
-10 2 -31 -8 -51 -8 -18 -13 -44 -10 -57 4 -13 8 -40 10 -59 11 -87 15 -100
32 -101 14 0 13 -2 -3 -9 -17 -7 -17 -9 -2 -9 9 -1 17 -6 17 -12 0 -5 4 -8 8
-5 5 3 15 -17 22 -44 8 -28 19 -50 27 -50 7 0 13 -4 13 -10 0 -21 2 -25 17
-42 9 -10 13 -26 10 -39 -4 -14 1 -31 14 -47 10 -14 19 -31 19 -38 0 -8 4 -14
8 -14 9 0 33 -44 38 -67 1 -6 16 -26 33 -43 17 -18 31 -39 31 -46 0 -7 9 -19
20 -27 11 -8 18 -16 15 -19 -3 -2 6 -10 19 -18 14 -7 30 -24 36 -39 11 -26 86
-79 162 -114 21 -10 36 -22 33 -27 -3 -5 -12 -7 -20 -3 -10 3 -15 -1 -15 -13
0 -15 2 -16 9 -5 5 8 11 9 15 3 3 -6 2 -13 -4 -17 -7 -4 -6 -13 1 -27 8 -15 8
-19 0 -14 -8 5 -11 -16 -11 -67 0 -68 2 -75 22 -80 12 -4 28 -1 35 5 9 7 13 7
13 -1 0 -6 5 -11 11 -11 5 0 7 5 4 10 -3 6 0 10 9 10 15 0 20 -17 32 -102 6
-49 -1 -88 -17 -88 -14 0 -32 -20 -46 -50 -9 -19 -12 -21 -12 -7 -1 10 -5 15
-11 12 -6 -3 -10 -43 -10 -88 0 -112 -12 -229 -20 -197 -5 21 -9 14 -24 -40
-10 -36 -21 -67 -25 -70 -8 -6 -31 -58 -31 -70 0 -24 20 -6 42 38 24 49 25 52
27 92 1 15 5 20 10 15 6 -6 6 -37 1 -80 -5 -38 -9 -83 -9 -100 0 -26 2 -27 9
-10 5 11 9 36 9 55 1 19 10 69 21 110 11 41 20 89 20 105 1 31 24 101 75 222
35 84 70 113 134 113 233 0 404 70 464 189 23 47 24 58 19 160 -4 101 -3 112
18 146 13 21 50 57 84 82 45 33 63 53 68 76 3 18 3 37 -2 42 -5 6 -5 17 0 25
6 8 10 31 11 50 0 19 3 29 6 23 3 -8 24 -13 56 -12 l52 0 -49 15 c-43 14 -47
18 -41 37 4 12 10 48 14 79 10 84 49 121 194 182 20 9 37 21 37 27 0 8 -4 8
-13 1 -7 -7 -38 -17 -68 -23 -69 -15 -158 -67 -159 -94 l-1 -20 -10 20 c-6 14
-7 6 -3 -26 4 -29 0 -63 -11 -97 -20 -61 -26 -66 -18 -15 4 25 3 34 -5 29 -16
-10 -27 35 -11 46 11 7 11 8 -1 7 -23 -4 -122 11 -151 22 -34 13 -33 39 2 46
34 7 55 28 39 38 -6 4 -29 9 -50 11 -31 3 -41 -1 -54 -21 -12 -17 -12 -25 -3
-28 9 -3 7 -10 -5 -24 -10 -11 -18 -27 -18 -36 0 -9 -5 -17 -11 -17 -5 0 -7
-5 -4 -10 4 -6 18 -9 33 -8 15 1 41 -6 59 -15 18 -9 43 -17 56 -17 13 0 38
-14 56 -30 17 -17 35 -28 40 -26 13 9 21 -89 10 -128 -8 -31 -12 -34 -32 -27
-13 5 -24 19 -27 35 -7 36 -55 63 -100 56 -35 -5 -35 -6 -35 -55 0 -27 3 -52
7 -55 4 -3 3 -21 -2 -40 -6 -23 -6 -54 1 -90 6 -30 12 -95 14 -145 l4 -90 -29
-1 c-40 -1 -60 -21 -60 -57 0 -38 -12 -28 -15 13 -2 16 4 35 11 41 8 6 14 18
14 25 0 8 4 14 9 14 5 0 11 15 14 33 4 17 9 48 12 67 4 19 3 30 -2 24 -12 -16
-108 -3 -108 15 0 18 -55 22 -62 4 -3 -7 -9 -13 -14 -13 -4 0 -6 6 -3 13 2 7
-7 23 -21 35 -14 12 -25 26 -25 32 0 5 -6 10 -14 10 -8 0 -16 3 -18 8 -3 8
-39 29 -106 63 -24 12 -46 29 -50 38 -3 9 -23 36 -44 60 -21 24 -38 48 -38 52
0 5 -6 9 -14 9 -18 0 -76 48 -76 62 0 18 -33 37 -64 38 -26 0 -28 2 -22 30 3
17 1 30 -4 30 -6 0 -10 22 -10 49 0 63 -7 80 -36 92 -32 12 -30 22 6 36 34 13
41 43 10 43 -11 0 -20 -4 -20 -10 0 -6 -42 -10 -105 -10 -90 0 -108 -3 -124
-19 -11 -11 -16 -23 -13 -27 4 -4 -3 -4 -15 -1 -14 3 -23 1 -23 -6 0 -25 -20
19 -20 45 0 20 -6 27 -22 30 -39 5 -60 61 -54 143 10 140 15 184 29 232 8 26
12 53 10 59 -5 16 -58 5 -82 -17 -26 -25 -141 -27 -165 -4 -8 8 -19 15 -25 15
-6 0 -11 6 -11 14 0 8 -7 16 -15 20 -8 3 -15 11 -15 19 0 7 -11 23 -25 35 -14
12 -25 27 -25 34 0 6 -2 9 -5 6 -3 -3 -19 6 -34 21 -16 14 -45 39 -65 55 -20
16 -45 49 -57 73 -12 25 -27 47 -34 49 -6 3 -17 20 -24 38 -8 18 -25 40 -40
50 -29 20 -31 32 -34 196 -2 88 1 100 30 160 39 80 86 131 142 153 78 32 132
18 203 -50 52 -51 56 -56 89 -119 17 -32 33 -50 48 -52 12 -2 25 -11 28 -20 8
-21 41 -53 51 -49 4 1 24 -7 44 -17 41 -22 74 -77 72 -118 0 -16 2 -28 6 -28
7 0 17 -22 25 -58 2 -7 10 -23 18 -35 8 -12 17 -40 21 -62 11 -55 23 -75 47
-75 28 0 61 -19 54 -31 -4 -5 5 -9 19 -9 54 0 67 68 40 214 -11 66 17 30 56
-69 27 -72 30 -75 55 -75 19 0 25 5 26 23 2 38 -2 61 -15 82 -7 11 -12 32 -12
48 1 15 -2 27 -6 27 -15 0 -2 40 21 66 24 27 41 94 24 94 -12 0 -4 114 8 118
5 2 9 16 9 30 0 40 19 102 32 102 5 0 8 7 4 15 -3 9 0 15 9 15 8 0 21 11 30
24 15 22 20 23 103 20 48 -2 107 -6 132 -9 78 -8 140 4 152 30 8 18 7 28 -6
46 -9 13 -16 28 -16 34 0 14 69 16 94 2 18 -10 52 -15 119 -17 9 -1 17 -5 17
-9 0 -4 16 -13 35 -20 21 -7 33 -17 29 -23 -5 -8 -1 -9 10 -5 14 6 17 3 12 -8
-3 -9 1 -18 9 -21 8 -4 15 -17 15 -29 0 -13 3 -25 8 -27 9 -4 42 -100 42 -125
0 -11 9 -45 19 -76 25 -71 14 -70 -60 3 -84 83 -188 129 -284 127 -48 -2 -60
-5 -63 -19 -2 -12 6 -22 25 -30 15 -7 31 -17 35 -23 4 -5 8 -7 8 -3 0 7 89
-21 143 -45 15 -6 27 -19 27 -28 0 -9 9 -19 20 -22 11 -3 20 -14 20 -24 0 -15
-7 -18 -35 -18 -20 1 -39 -3 -43 -9 -4 -6 -36 -11 -72 -12 -95 0 -132 -7 -152
-26 -18 -18 -25 -59 -10 -57 20 3 32 -2 32 -16 0 -12 10 -14 45 -10 66 7 89
-6 104 -57 7 -23 19 -55 27 -70 8 -14 14 -51 14 -82 0 -43 3 -56 15 -56 8 0
15 -5 15 -11 0 -6 6 -17 14 -25 13 -12 15 -11 21 6 7 23 18 25 43 9 21 -13 81
1 130 31 26 16 32 26 32 55 0 19 4 35 9 35 5 0 13 9 16 21 18 56 37 -54 21
-121 -5 -19 -15 -45 -23 -57 -20 -31 -25 -99 -7 -114 8 -6 14 -18 14 -25 0
-15 41 -86 98 -171 64 -95 51 -58 -25 74 -29 51 -53 97 -53 102 0 6 15 28 33
48 19 21 44 57 57 80 13 24 31 45 39 48 50 16 123 110 175 225 21 47 48 105
61 130 12 25 30 70 40 100 10 30 23 66 30 80 7 14 18 65 24 114 7 49 18 101
25 115 7 14 16 49 20 76 l6 50 -17 -32 c-9 -18 -22 -33 -29 -33 -11 0 -31 -39
-25 -49 2 -2 -3 -8 -11 -12 -10 -7 -10 -9 0 -9 18 0 15 -17 -6 -38 -23 -23
-36 -89 -19 -95 6 -2 1 -6 -11 -9 -18 -5 -22 -2 -23 15 0 21 -1 20 -11 -3
l-11 -25 -7 25 c-9 32 -1 58 11 38 6 -9 9 -8 9 7 0 12 5 26 11 32 7 7 12 22
13 35 1 13 7 22 14 20 8 -1 12 8 10 25 -1 16 6 43 16 62 15 28 17 47 11 100
-3 36 -8 84 -9 106 -5 64 -5 65 -21 65 -8 0 -15 6 -15 14 0 7 -7 19 -15 26 -8
7 -15 20 -15 30 0 16 -21 69 -41 100 -5 8 -13 25 -18 36 -13 30 -140 169 -153
169 -7 0 -16 16 -21 35 -5 19 -18 46 -30 58 -25 27 -96 62 -127 62 -11 0 -40
18 -64 40 -41 38 -76 52 -76 30 0 -5 -12 -10 -27 -10 -23 0 -28 5 -29 24 -1
18 4 26 20 28 21 3 21 4 -2 16 -19 11 -33 11 -75 1 -63 -15 -117 -41 -99 -46
17 -6 15 -40 -4 -47 -8 -3 -28 1 -43 9 -16 8 -31 11 -35 8 -3 -4 -6 -1 -6 5 0
11 -22 16 -105 26 -105 13 -128 19 -132 37 -3 11 -10 19 -16 19 -6 0 -8 2 -5
5 3 3 34 8 69 12 76 7 90 13 28 13 -35 -1 -72 14 -184 70 -223 112 -352 141
-655 146 -150 3 -204 1 -234 -10z m247 -13 c-7 -2 -19 -2 -25 0 -7 3 -2 5 12
5 14 0 19 -2 13 -5z m44 1 c-3 -3 -12 -4 -19 -1 -8 3 -5 6 6 6 11 1 17 -2 13
-5z m40 0 c-3 -3 -12 -4 -19 -1 -8 3 -5 6 6 6 11 1 17 -2 13 -5z m413 -84 c0
-5 -7 -7 -15 -4 -8 4 -15 8 -15 10 0 2 7 4 15 4 8 0 15 -4 15 -10z m-853 -42
c-3 -7 -5 -2 -5 12 0 14 2 19 5 13 2 -7 2 -19 0 -25z m223 -48 c0 -5 -7 -10
-16 -10 -8 0 -12 5 -9 10 3 6 10 10 16 10 5 0 9 -4 9 -10z m835 -11 c11 -17 2
-18 -19 -3 -17 12 -17 14 -4 14 9 0 20 -5 23 -11z m-947 -30 c-3 -8 -7 -3 -11
10 -4 17 -3 21 5 13 5 -5 8 -16 6 -23z m2112 -1214 c0 -13 -6 -28 -14 -32 -7
-4 -16 -15 -19 -23 -3 -8 -6 1 -6 21 -1 33 13 59 31 59 4 0 8 -11 8 -25z
m-204 -382 c-11 -11 -19 6 -11 24 8 17 8 17 12 0 3 -10 2 -21 -1 -24z m-389
-199 c-3 -3 -12 -4 -19 -1 -8 3 -5 6 6 6 11 1 17 -2 13 -5z m-1930 -796 c-3
-8 -6 -5 -6 6 -1 11 2 17 5 13 3 -3 4 -12 1 -19z m-307 -109 c0 -5 -4 -9 -10
-9 -5 0 -10 7 -10 16 0 8 5 12 10 9 6 -3 10 -10 10 -16z m3 -34 c4 -8 2 -17
-4 -20 -5 -4 -6 -11 -3 -17 4 -7 2 -8 -4 -4 -14 8 -16 56 -3 56 5 0 11 -7 14
-15z m54 -116 c1 -12 10 -30 19 -40 10 -11 12 -19 6 -19 -7 0 -12 -10 -12 -22
0 -14 -3 -19 -10 -12 -11 11 -21 114 -11 114 4 0 7 -10 8 -21z m40 -221 c-3
-8 -6 -5 -6 6 -1 11 2 17 5 13 3 -3 4 -12 1 -19z m1373 -204 c0 -14 -4 -22
-10 -19 -5 3 -10 17 -10 31 0 14 4 22 10 19 6 -3 10 -17 10 -31z m570 -114 c0
-5 -5 -10 -11 -10 -5 0 -7 5 -4 10 3 6 8 10 11 10 2 0 4 -4 4 -10z m-6 -45
c-14 -11 -15 -14 -4 -15 15 0 -35 -30 -50 -30 -14 0 45 59 59 60 11 0 9 -4 -5
-15z m-531 -245 c-3 -11 -7 -20 -9 -20 -2 0 -4 9 -4 20 0 11 4 20 9 20 5 0 7
-9 4 -20z"/>
<path d="M3874 9369 c-58 -56 -65 -69 -34 -69 11 0 20 4 20 9 0 11 64 81 74
81 4 0 14 7 22 15 14 13 13 15 -6 15 -12 0 -45 -23 -76 -51z"/>
<path d="M3545 9292 c-36 -18 -23 -25 28 -15 33 7 35 9 19 19 -14 9 -25 8 -47
-4z"/>
<path d="M3627 9286 c-4 -10 8 -15 44 -20 34 -5 49 -11 49 -22 0 -8 5 -12 10
-9 10 6 12 -4 15 -74 0 -19 6 -36 12 -38 14 -5 25 39 12 48 -8 5 -15 30 -18
72 -1 7 -103 57 -115 57 -2 0 -6 -6 -9 -14z"/>
<path d="M3470 9259 c0 -5 5 -7 10 -4 6 3 10 8 10 11 0 2 -4 4 -10 4 -5 0 -10
-5 -10 -11z"/>
<path d="M3250 8921 c0 -11 4 -21 9 -21 18 0 21 18 6 30 -13 10 -15 9 -15 -9z"/>
<path d="M3230 8858 c0 -36 11 -31 15 7 2 14 -1 25 -6 25 -5 0 -9 -14 -9 -32z"/>
<path d="M3167 8862 c-18 -19 -23 -52 -9 -52 5 0 13 16 19 35 13 40 12 42 -10
17z"/>
<path d="M3138 8740 c-4 -14 -8 -34 -8 -45 1 -19 1 -19 11 -2 6 10 9 30 7 45
l-3 27 -7 -25z"/>
<path d="M6300 8745 c-13 -15 -14 -14 35 -30 21 -6 19 -43 -2 -47 -12 -3 -9
-6 10 -10 27 -5 28 -4 21 26 -7 34 -32 76 -44 76 -4 0 -13 -7 -20 -15z"/>
<path d="M4013 8247 c-20 -7 -37 -21 -44 -39 -6 -15 -15 -28 -20 -28 -5 0 -9
-8 -9 -17 1 -17 1 -17 14 0 7 9 22 17 33 17 10 0 23 4 29 9 5 6 24 4 48 -4 22
-8 43 -12 47 -9 4 2 11 -6 15 -18 4 -13 11 -26 17 -29 5 -4 12 -31 14 -60 3
-41 10 -60 29 -78 l25 -23 -21 -23 c-13 -14 -30 -22 -43 -20 -31 6 -87 -24
-87 -46 0 -11 -6 -22 -14 -25 -21 -8 -7 -44 17 -44 11 0 35 11 53 25 45 34 64
33 64 -5 0 -27 2 -29 19 -18 25 16 32 38 37 122 2 42 9 73 16 78 9 5 10 8 1 8
-7 0 -12 15 -11 38 0 37 -16 79 -36 94 -5 3 -11 13 -12 22 -4 26 -38 65 -68
76 -34 12 -69 11 -113 -3z"/>
<path d="M5340 7940 c0 -5 5 -10 10 -10 6 0 10 5 10 10 0 6 -4 10 -10 10 -5 0
-10 -4 -10 -10z"/>
<path d="M4285 7818 c-4 -10 -11 -16 -15 -13 -4 3 -22 -9 -40 -25 -18 -17 -38
-30 -45 -30 -16 0 -23 -19 -17 -43 4 -15 11 -18 33 -13 32 6 49 -14 49 -58 0
-35 65 -76 120 -76 22 0 40 4 40 9 0 4 -11 25 -25 45 -14 20 -25 41 -25 46 0
5 -9 14 -20 20 -14 7 -19 19 -16 39 4 37 -29 123 -39 99z"/>
<path d="M3121 7494 c0 -11 3 -14 6 -6 3 7 2 16 -1 19 -3 4 -6 -2 -5 -13z"/>
<path d="M4305 7450 c-4 -6 7 -10 25 -10 18 0 29 4 25 10 -3 6 -15 10 -25 10
-10 0 -22 -4 -25 -10z"/>
<path d="M5723 7049 c-14 -14 5 -77 27 -89 9 -5 39 -10 66 -11 27 -2 63 -9 81
-16 42 -17 58 -16 78 3 14 15 14 17 -2 30 -11 8 -13 13 -5 14 8 0 6 6 -5 18
-10 10 -20 17 -22 15 -2 -1 -11 3 -19 10 -12 9 -14 9 -9 0 6 -9 -4 -11 -35 -9
-24 1 -49 -2 -56 -7 -9 -7 -17 -6 -24 1 -9 9 -9 12 2 12 12 0 12 2 0 14 -21
19 -64 28 -77 15z"/>
<path d="M6083 6980 c0 -36 2 -50 4 -32 2 17 2 47 0 65 -2 17 -4 3 -4 -33z"/>
<path d="M4942 6939 c2 -6 7 -10 11 -10 4 1 14 1 22 1 8 0 15 5 15 10 0 6 -12
10 -26 10 -14 0 -24 -5 -22 -11z"/>
<path d="M5503 6500 c-1 -11 2 -20 7 -20 4 0 6 -10 3 -22 -4 -19 -3 -20 6 -8
8 11 13 12 19 4 5 -9 10 -8 19 1 9 10 7 19 -12 39 -29 31 -40 33 -42 6z"/>
<path d="M3480 5829 c0 -5 5 -7 10 -4 6 3 10 8 10 11 0 2 -4 4 -10 4 -5 0 -10
-5 -10 -11z"/>
<path d="M2705 5485 c-33 -21 -66 -45 -73 -52 -7 -7 -25 -15 -40 -18 -107 -22
-248 -88 -297 -140 -34 -35 -51 -45 -98 -55 -32 -6 -101 -26 -155 -45 -368
-125 -674 -343 -917 -653 -11 -14 -38 -48 -60 -76 -153 -194 -229 -324 -295
-504 -48 -132 -86 -314 -95 -462 -14 -232 -27 -350 -50 -445 -13 -55 -29 -136
-34 -180 -6 -44 -20 -120 -32 -170 -12 -49 -24 -103 -27 -119 -2 -17 -13 -39
-23 -50 -22 -23 -17 -35 7 -16 13 12 17 11 25 -1 6 -10 9 -8 9 11 0 14 7 38
15 54 8 15 15 35 15 42 0 8 4 14 9 14 6 0 8 27 5 63 -4 56 -3 60 10 43 14 -17
15 -13 12 40 -2 33 0 66 4 74 5 8 10 38 13 65 6 59 17 98 30 106 5 4 10 33 12
65 2 33 6 93 9 134 12 149 15 187 21 285 11 174 47 340 101 466 13 31 24 61
24 66 0 15 67 139 117 216 72 109 237 326 246 320 4 -2 7 3 7 11 0 9 4 16 10
16 5 0 37 33 71 73 34 39 83 88 109 107 25 20 66 56 91 81 43 43 219 156 260
166 10 3 19 9 19 14 0 5 5 9 12 9 6 0 19 6 27 14 9 7 39 21 66 31 28 10 59 25
70 32 11 7 29 13 40 13 12 0 25 4 31 9 12 12 202 71 229 71 11 0 34 9 50 20
19 12 47 20 75 20 25 0 77 7 115 15 155 33 200 18 280 -90 70 -96 101 -153
165 -305 18 -41 47 -108 66 -148 19 -40 34 -77 34 -83 0 -6 14 -41 31 -77 17
-37 42 -94 56 -127 13 -33 30 -73 38 -90 22 -49 122 -307 135 -350 15 -51 62
-158 71 -165 4 -3 17 -52 30 -110 30 -137 32 -360 6 -495 -17 -84 -90 -256
-124 -293 -7 -7 -13 -17 -13 -20 0 -13 -111 -124 -117 -118 -4 3 2 14 11 25
17 18 16 20 -18 32 -20 7 -36 17 -36 21 0 4 -7 8 -15 8 -8 0 -15 4 -15 9 0 5
-11 12 -25 15 -15 4 -30 18 -35 32 -7 17 -15 24 -25 20 -11 -4 -17 3 -22 24
-3 17 -11 30 -19 30 -7 0 -15 9 -19 19 -3 11 -14 23 -24 26 -11 3 -21 19 -24
39 -3 20 -20 49 -41 71 -20 20 -36 42 -36 48 0 5 -3 7 -6 4 -10 -9 -85 53 -78
64 3 5 -2 12 -11 16 -10 3 -29 17 -43 30 -20 19 -25 32 -24 69 0 25 -6 57 -13
71 -12 23 -14 24 -23 7 -6 -11 -11 -22 -11 -26 -6 -37 -46 -138 -53 -138 -5 0
-13 -10 -18 -22 l-9 -23 0 23 c-1 12 3 22 8 22 12 0 20 49 9 56 -6 4 -8 25 -6
48 3 32 -1 50 -21 79 -25 38 -26 39 -76 33 -60 -6 -85 -14 -85 -28 0 -5 -4 -7
-9 -4 -5 3 -11 -1 -15 -9 -3 -8 -11 -15 -18 -15 -7 0 -28 -14 -47 -30 -18 -17
-41 -30 -50 -30 -10 0 -41 -25 -69 -56 -56 -59 -55 -59 -129 -38 -18 5 -23 1
-28 -19 -7 -25 -41 -47 -74 -47 -9 0 -41 12 -70 26 -44 22 -57 25 -77 15 -28
-12 -77 -15 -88 -4 -3 4 -16 7 -27 8 -41 3 -46 -68 -7 -109 20 -21 23 -36 9
-36 -5 0 -8 -25 -8 -55 l2 -55 45 -5 c25 -4 59 -13 75 -20 17 -7 57 -19 90
-25 33 -6 79 -21 102 -33 39 -20 43 -20 60 -5 22 20 47 9 37 -16 -4 -10 1 -25
12 -37 29 -33 45 -87 28 -103 -9 -9 -13 -37 -12 -84 1 -39 -4 -77 -10 -85 -6
-7 -9 -23 -5 -35 3 -14 -1 -30 -10 -40 -20 -22 -36 -149 -18 -137 9 5 10 2 3
-11 -9 -17 -19 -63 -57 -257 -17 -92 -29 -98 -21 -10 3 39 2 74 -2 77 -11 6
-46 -99 -47 -139 0 -16 -6 -36 -12 -43 -7 -7 -11 -23 -9 -35 3 -12 5 -25 5
-29 1 -3 10 -4 21 -1 17 4 17 7 5 19 -14 15 -10 44 6 44 5 0 6 19 3 43 -5 33
-4 40 6 30 14 -13 15 -140 1 -157 -5 -6 -12 -28 -16 -48 -4 -21 -11 -38 -17
-38 -5 0 -7 -4 -4 -9 4 -5 -6 -14 -21 -19 -16 -6 -23 -11 -17 -11 15 -1 11
-65 -13 -216 -3 -22 -7 -50 -9 -63 -1 -12 -7 -44 -12 -70 -6 -26 -25 -126 -42
-222 -18 -96 -37 -191 -43 -210 -6 -19 -10 -39 -9 -43 1 -5 -3 -27 -10 -50 -6
-23 -12 -44 -13 -47 0 -3 -5 -32 -9 -65 -10 -72 -18 -89 -27 -55 -4 16 -6 6
-6 -30 0 -73 -13 -141 -26 -133 -6 3 -7 1 -3 -6 4 -6 3 -18 -3 -25 -7 -8 -18
-45 -26 -82 -24 -114 -51 -188 -65 -179 -4 2 -5 -6 -3 -18 4 -22 -2 -51 -30
-152 -24 -82 -32 -158 -16 -153 10 3 25 51 42 138 4 18 27 98 66 230 16 52 35
120 41 150 7 30 17 61 23 68 5 7 8 15 5 17 -3 3 4 38 14 78 11 39 26 106 34
147 9 41 19 84 24 95 4 11 13 52 20 90 18 109 26 151 53 280 23 108 35 178 68
385 11 75 29 140 38 140 4 0 17 -24 30 -53 57 -123 75 -157 92 -175 9 -11 27
-38 38 -60 11 -23 27 -45 35 -49 8 -4 28 -35 45 -69 17 -33 40 -69 51 -79 11
-10 20 -22 20 -26 0 -5 11 -32 24 -61 28 -60 66 -162 73 -196 3 -13 22 -35 41
-50 42 -32 112 -105 129 -136 16 -27 53 -113 53 -122 0 -3 20 -41 44 -84 23
-42 46 -88 49 -102 4 -14 17 -38 29 -54 22 -27 32 -48 58 -124 7 -19 22 -57
35 -85 39 -85 52 -119 65 -160 7 -22 27 -61 44 -87 l31 -48 1656 0 1656 0 7
83 c4 45 11 100 16 122 10 42 4 88 -10 80 -18 -11 -38 46 -44 120 -3 44 -13
106 -21 140 -28 118 -36 217 -33 407 4 229 -7 319 -61 503 -28 98 -68 203 -95
250 -17 29 -22 51 -18 81 3 29 -3 54 -18 84 -18 35 -20 47 -11 67 15 32 14 78
-1 90 -7 6 -26 13 -41 17 -15 4 -33 17 -39 30 -9 21 -6 31 22 70 33 45 33 46
18 85 -14 35 -14 43 -2 67 11 20 12 29 3 35 -6 4 -8 12 -4 19 5 9 9 9 14 1 5
-8 13 -7 27 4 18 14 18 14 -8 15 -22 0 -28 5 -28 21 0 12 8 23 20 26 16 4 20
14 20 43 0 25 8 48 23 67 13 15 30 40 39 54 25 39 67 241 79 371 5 62 12 121
15 131 3 10 6 93 6 185 1 193 -12 263 -88 482 -40 116 -47 149 -55 254 -9 134
-21 219 -39 285 -20 75 -86 206 -124 249 -38 42 -158 126 -252 179 -28 15 -80
53 -114 83 -79 70 -141 109 -258 165 -51 25 -95 52 -98 60 -3 8 -30 29 -60 46
-30 17 -68 42 -84 56 -24 20 -30 22 -30 8 0 -9 12 -28 28 -43 15 -15 27 -33
27 -41 0 -7 15 -22 33 -32 19 -9 37 -21 40 -25 4 -4 1 -4 -7 1 -9 5 -12 4 -7
-3 4 -7 16 -12 28 -12 11 0 22 -8 25 -20 5 -19 20 -23 86 -23 10 0 16 -2 13
-5 -3 -2 11 -17 32 -32 61 -44 126 -130 162 -215 19 -44 48 -102 65 -130 50
-81 143 -276 155 -325 38 -153 43 -193 44 -330 1 -164 -4 -182 -96 -333 -26
-43 -52 -95 -59 -115 -7 -20 -21 -53 -32 -72 -23 -41 -130 -146 -158 -155 -10
-4 -19 -10 -19 -15 0 -8 -54 -20 -100 -22 -48 -2 -109 6 -104 14 3 4 -4 8 -16
8 -13 0 -19 -4 -14 -11 4 -7 1 -10 -7 -7 -8 3 -13 11 -11 17 1 6 -5 11 -13 11
-8 0 -15 4 -15 8 0 13 74 1 83 -14 10 -18 37 -18 37 -1 0 8 19 22 43 33 23 10
50 28 59 39 16 19 16 20 -8 31 -13 5 -31 20 -39 31 -9 12 -27 23 -42 25 -37 4
-41 26 -6 33 56 13 83 27 83 45 0 33 -12 50 -35 50 -23 0 -45 30 -22 30 7 0 5
5 -4 10 -21 12 -80 -15 -73 -34 3 -8 -4 -16 -18 -20 -23 -6 -23 -6 -3 -22 17
-13 18 -16 5 -24 -21 -14 -34 -12 -22 3 7 8 7 17 -3 30 -14 20 -45 13 -45 -11
0 -8 -3 -12 -7 -9 -3 4 -12 2 -19 -4 -11 -9 -16 -5 -24 16 -15 39 -13 46 15
39 15 -4 25 -2 25 5 0 6 6 11 14 11 16 0 76 53 76 68 0 5 -8 9 -17 8 -10 0
-19 7 -21 17 -3 16 2 18 35 15 32 -2 38 0 38 17 0 13 -6 20 -17 19 -15 -2 -18
6 -18 41 0 25 -5 45 -12 48 -7 3 -4 6 7 6 11 1 31 10 45 21 23 18 23 20 5 20
-19 1 -19 1 -2 11 16 9 16 12 4 22 -18 15 -28 55 -16 63 14 8 11 21 -8 28 -9
4 -21 2 -27 -4 -5 -5 -18 -10 -29 -10 -14 0 -17 5 -12 20 5 15 2 20 -13 20
-22 0 -45 -23 -34 -34 4 -5 -7 -7 -23 -5 -52 6 -111 -54 -95 -96 5 -13 6 -26
3 -29 -4 -3 1 -6 9 -6 9 0 21 -14 28 -30 11 -26 10 -33 -4 -43 -14 -11 -14
-17 -2 -58 10 -31 11 -50 4 -57 -6 -6 4 -8 31 -5 47 6 58 -14 12 -23 -25 -5
-28 -10 -27 -42 1 -30 -3 -37 -19 -38 -39 -2 -46 -4 -41 -12 2 -4 20 -7 40 -6
20 1 36 -2 36 -7 0 -5 -9 -9 -20 -9 -11 0 -20 -4 -20 -10 0 -5 9 -10 19 -10
23 0 37 -16 19 -23 -7 -2 -9 -8 -5 -13 5 -5 22 -1 38 9 38 21 59 22 59 2 0 -8
-9 -15 -19 -15 -10 0 -21 -7 -25 -15 -3 -8 -13 -15 -23 -15 -10 0 1 -10 25
-22 23 -12 42 -25 42 -29 0 -17 -22 -20 -39 -5 -20 18 -41 21 -41 6 0 -5 5
-10 11 -10 5 0 7 -4 4 -10 -3 -5 1 -10 9 -10 10 0 16 -9 16 -21 0 -15 -5 -19
-15 -15 -9 3 -15 0 -15 -9 0 -22 -50 -19 -108 8 -49 23 -80 46 -157 116 -22
20 -58 49 -80 65 -60 45 -215 207 -229 241 -7 17 -35 57 -63 90 -27 33 -60 76
-73 95 -13 19 -27 37 -30 40 -19 15 -144 217 -182 295 -76 152 -153 298 -186
351 -18 28 -32 54 -32 58 0 4 -13 26 -29 49 -15 23 -46 80 -68 127 -22 47 -70
132 -108 189 -76 114 -291 361 -376 431 -30 25 -55 48 -57 53 -2 4 -10 7 -18
7 -8 0 -14 5 -14 10 0 6 -11 16 -25 22 -14 6 -25 17 -25 25 0 13 -14 15 -200
17 -83 1 -86 0 -145 -39z m270 5 c-16 -7 -13 -9 16 -9 44 -1 87 -21 95 -43 3
-10 11 -18 18 -18 7 0 21 -9 31 -20 17 -19 17 -20 -1 -21 -10 -1 -6 -4 11 -8
19 -4 35 -16 43 -34 7 -15 21 -27 30 -28 9 0 4 -5 -13 -10 -30 -9 -49 4 -41
28 3 6 -8 16 -23 21 -35 12 -230 5 -247 -9 -8 -7 -14 -6 -17 3 -3 8 -6 6 -6
-6 -1 -12 -6 -16 -17 -12 -9 3 -24 6 -35 6 -18 0 -45 42 -41 63 1 4 -9 12 -23
17 -14 5 -25 15 -25 22 -1 7 -7 2 -14 -11 -9 -16 -15 -20 -21 -12 -9 15 22 51
43 51 9 0 12 3 8 7 -16 16 40 28 141 30 67 1 100 -2 88 -7z m-458 -136 c-3 -3
-12 -4 -19 -1 -8 3 -5 6 6 6 11 1 17 -2 13 -5z m593 -24 c0 -5 -4 -10 -10 -10
-5 0 -10 5 -10 10 0 6 5 10 10 10 6 0 10 -4 10 -10z m1915 -310 c10 -11 16
-20 13 -20 -3 0 -15 9 -28 20 -13 11 -19 20 -13 20 5 0 18 -9 28 -20z m65 -54
c0 -3 -4 -8 -10 -11 -5 -3 -10 -1 -10 4 0 6 5 11 10 11 6 0 10 -2 10 -4z m447
-276 c15 0 158 -101 208 -147 44 -40 102 -147 131 -242 24 -77 66 -386 51
-371 -3 3 -39 71 -80 151 -41 80 -104 190 -139 245 -36 54 -72 113 -81 129
-15 29 -77 129 -94 150 -4 6 -17 27 -28 48 -11 21 -28 45 -37 54 -32 29 -19
34 22 8 22 -14 43 -25 47 -25z m-497 -900 c0 -5 -2 -10 -4 -10 -3 0 -8 5 -11
10 -3 6 -1 10 4 10 6 0 11 -4 11 -10z m-140 -50 c0 -11 -2 -20 -5 -20 -2 0 -9
9 -15 20 -9 16 -8 20 5 20 8 0 15 -9 15 -20z m74 -118 c2 -4 1 -14 -4 -22 -7
-11 -12 -12 -21 -3 -6 6 -8 16 -5 22 8 13 23 14 30 3z m26 -46 c0 -3 -4 -8
-10 -11 -5 -3 -10 -1 -10 4 0 6 5 11 10 11 6 0 10 -2 10 -4z m-4330 -530 c0
-3 -4 -8 -10 -11 -5 -3 -10 -1 -10 4 0 6 5 11 10 11 6 0 10 -2 10 -4z m-88
-408 c-6 -6 -7 0 -4 19 5 21 7 23 10 9 2 -10 0 -22 -6 -28z m1657 27 c23 -8
57 -25 74 -37 49 -35 176 -74 317 -99 3 0 -11 -7 -30 -15 l-35 -14 33 5 c17 3
46 8 62 11 17 4 30 3 30 -2 0 -16 -230 -65 -344 -74 -114 -8 -219 -3 -211 11
3 4 38 6 78 4 57 -3 62 -2 25 4 -26 4 -48 9 -50 11 -27 43 -38 74 -32 88 26
60 28 92 8 107 -18 14 -18 14 7 15 15 0 45 -7 68 -15z"/>
<path d="M4914 4181 c7 -10 86 -20 86 -10 0 10 -28 19 -61 19 -17 0 -28 -4
-25 -9z"/>
<path d="M4874 4123 c-12 -29 -10 -48 6 -48 8 0 15 -4 15 -10 0 -5 -10 -9 -22
-7 -23 3 -40 -13 -23 -23 6 -4 6 -12 -2 -24 -17 -28 -3 -51 31 -51 16 0 36 -2
43 -5 20 -8 88 48 79 64 -6 9 -14 9 -34 0 -30 -13 -50 -4 -27 12 8 5 27 12 43
16 32 7 35 19 7 28 -11 3 -20 11 -20 16 0 5 -3 8 -7 8 -23 -4 -31 3 -26 21 4
17 0 20 -25 20 -19 0 -33 -6 -38 -17z"/>
<path d="M946 3438 c-34 -17 -60 -37 -63 -48 -3 -12 -18 -23 -37 -28 -26 -7
-32 -14 -37 -48 -4 -21 -12 -63 -18 -93 -6 -29 -11 -68 -11 -86 0 -18 -7 -38
-16 -46 -12 -10 -14 -23 -9 -61 6 -39 3 -54 -14 -82 -15 -24 -21 -50 -21 -94
0 -33 -4 -64 -10 -67 -5 -3 -8 -31 -5 -62 3 -31 0 -62 -5 -68 -8 -9 -6 -17 5
-28 21 -21 19 -36 -7 -56 -16 -13 -19 -24 -14 -44 6 -23 9 -25 38 -16 22 6 34
5 39 -2 4 -7 10 -3 14 11 6 19 12 21 40 17 30 -5 35 -2 44 24 12 36 37 38 45
4 4 -14 12 -25 20 -25 7 0 24 -8 37 -18 39 -31 73 -35 95 -11 16 18 20 19 30
5 19 -26 130 -25 185 2 25 12 57 23 72 24 25 2 40 18 17 18 -5 0 -10 10 -10
23 0 38 12 67 27 67 10 0 13 9 11 28 -2 15 -8 26 -15 24 -18 -3 -16 25 5 60
13 23 14 32 5 35 -17 6 -16 29 2 56 10 16 15 48 14 98 0 63 3 106 9 143 1 4 8
6 16 3 42 -16 75 61 39 89 -33 25 -53 17 -53 -20 0 -41 -14 -53 -35 -32 -15
15 -14 35 11 158 6 24 1 29 -57 57 -35 17 -73 31 -85 31 -12 0 -37 11 -56 24
-20 13 -55 27 -78 31 -24 4 -57 13 -74 19 -27 11 -38 9 -90 -16z"/>
<path d="M9730 3295 c-113 -6 -214 -15 -225 -18 -11 -4 -78 -9 -149 -12 -71
-3 -132 -8 -135 -11 -6 -6 137 -1 459 15 107 5 223 10 258 10 48 1 62 4 62 16
0 11 -10 15 -32 14 -18 -1 -125 -7 -238 -14z"/>
<path d="M1506 3287 c-37 -12 -33 -45 7 -60 29 -11 57 10 57 41 0 30 -16 35
-64 19z"/>
<path d="M1915 3290 c-18 -8 -17 -9 8 -9 15 -1 27 4 27 9 0 12 -8 12 -35 0z"/>
<path d="M6693 2656 c-31 -15 -29 -28 2 -14 14 6 25 15 25 20 0 4 -1 7 -2 7
-2 -1 -13 -6 -25 -13z"/>
<path d="M8720 2644 c0 -11 65 -35 86 -32 19 2 12 7 -30 19 -31 9 -56 15 -56
13z"/>
<path d="M6345 2624 c-55 -7 -136 -17 -180 -23 -44 -7 -90 -13 -102 -14 -30
-4 -42 -17 -15 -17 32 0 170 20 249 36 40 7 95 14 122 14 27 0 53 5 56 10 7
12 3 11 -130 -6z"/>
<path d="M6721 2640 c-2 -3 -4 -25 -6 -49 -2 -32 0 -40 7 -28 5 10 7 32 5 50
-2 17 -5 30 -6 27z"/>
<path d="M9220 2630 c-8 -5 16 -10 53 -12 37 -1 67 0 67 5 0 4 -10 7 -22 8
-13 1 -37 2 -54 4 -18 1 -38 -1 -44 -5z"/>
<path d="M6559 2619 c22 -9 53 -16 74 -18 5 -1 -6 -21 -23 -44 -31 -43 -47
-112 -29 -123 5 -3 9 3 10 13 1 37 8 57 29 85 11 15 23 41 26 56 5 26 3 30
-26 36 -18 3 -44 6 -59 5 l-26 0 24 -10z"/>
<path d="M9120 2600 l-25 -8 25 -1 c14 0 32 4 40 9 13 9 13 10 0 9 -8 -1 -26
-5 -40 -9z"/>
<path d="M7663 2553 c37 -2 96 -2 130 0 34 2 4 3 -68 3 -71 0 -99 -1 -62 -3z"/>
<path d="M48 2543 c7 -3 16 -2 19 1 4 3 -2 6 -13 5 -11 0 -14 -3 -6 -6z"/>
<path d="M100 2510 c0 -5 7 -10 15 -10 8 0 15 5 15 10 0 6 -7 10 -15 10 -8 0
-15 -4 -15 -10z"/>
<path d="M147 2487 c3 -15 9 -30 14 -33 14 -8 10 20 -5 41 -13 18 -14 18 -9
-8z"/>
<path d="M527 2463 c-9 -31 -17 -72 -34 -161 -13 -71 -17 -171 -18 -542 -3
-434 -23 -874 -55 -1160 -5 -47 -14 -137 -20 -200 -6 -63 -18 -139 -26 -167
-31 -112 -51 -233 -38 -233 7 0 15 6 17 13 4 10 6 10 6 0 1 -9 20 -13 61 -13
33 0 60 1 61 3 0 1 4 46 8 100 5 69 12 101 23 110 9 6 23 46 33 87 16 70 48
128 85 157 8 7 10 13 5 13 -20 0 -4 90 21 117 26 28 30 48 13 58 -6 5 1 19 20
37 17 17 31 36 31 42 0 7 14 25 30 41 17 16 30 34 30 40 0 6 9 18 20 28 13 11
20 29 20 52 0 22 8 43 20 55 11 11 20 29 20 40 0 10 9 24 20 30 15 8 20 21 20
50 0 29 4 40 15 40 8 0 22 14 30 30 17 33 10 42 -30 37 -14 -1 -21 5 -23 19
-2 15 9 29 38 49 37 26 40 31 41 79 1 28 0 56 -1 61 -9 32 -3 51 17 60 31 13
35 29 17 65 -13 25 -13 34 -3 46 7 8 19 12 26 9 8 -2 23 0 34 6 16 8 18 17 13
45 -6 30 -4 34 16 34 18 0 21 5 18 33 -2 17 -8 31 -14 30 -7 -1 -18 12 -25 28
-11 27 -10 36 5 64 18 32 18 34 -5 64 -13 18 -24 42 -24 54 0 18 -6 22 -32 22
-27 0 -33 4 -33 20 0 19 -80 115 -96 115 -5 0 -25 12 -46 26 -31 22 -38 33
-38 60 0 19 -4 34 -9 34 -9 0 -18 47 -25 120 -2 27 -11 39 -40 57 -20 13 -36
28 -36 33 0 6 -14 10 -30 10 -37 0 -94 -54 -121 -115 l-18 -40 0 38 c-1 20 2
37 7 37 4 0 7 15 8 33 0 17 3 51 8 75 7 41 -7 62 -17 25z m-20 -460 c-2 -16
-4 -3 -4 27 0 30 2 43 4 28 2 -16 2 -40 0 -55z m0 -65 c-3 -7 -5 -2 -5 12 0
14 2 19 5 13 2 -7 2 -19 0 -25z m0 -140 c-3 -7 -5 -2 -5 12 0 14 2 19 5 13 2
-7 2 -19 0 -25z"/>
<path d="M119 2428 c-1 -7 0 -21 1 -32 1 -10 -4 -23 -12 -27 -21 -14 -32 -10
-18 6 10 12 10 15 0 15 -8 0 -11 3 -7 6 3 4 -1 14 -10 23 -12 11 -17 13 -21 3
-2 -6 -10 -12 -17 -12 -17 0 -23 -9 -30 -48 -5 -29 -3 -32 20 -32 15 0 45 5
69 11 42 10 43 11 42 55 -1 24 -4 44 -8 44 -5 0 -9 -6 -9 -12z m-49 -58 c0 -5
-7 -10 -16 -10 -8 0 -12 5 -9 10 3 6 10 10 16 10 5 0 9 -4 9 -10z"/>
<path d="M171 2405 c-1 -21 15 -52 23 -45 2 3 -2 19 -9 35 -10 23 -14 25 -14
10z"/>
<path d="M1982 2350 c0 -19 2 -27 5 -17 2 9 2 25 0 35 -3 9 -5 1 -5 -18z"/>
<path d="M6455 2301 c-15 -6 -11 -9 20 -14 53 -9 250 -9 241 0 -13 13 -230 25
-261 14z"/>
<path d="M1954 2239 c-3 -6 -1 -16 5 -22 8 -8 11 -5 11 11 0 24 -5 28 -16 11z"/>
<path d="M1030 2070 c0 -5 5 -10 10 -10 6 0 10 5 10 10 0 6 -4 10 -10 10 -5 0
-10 -4 -10 -10z"/>
<path d="M1905 2000 c3 -5 8 -10 11 -10 2 0 4 5 4 10 0 6 -5 10 -11 10 -5 0
-7 -4 -4 -10z"/>
<path d="M1876 1927 c-5 -15 -6 -31 -2 -34 11 -11 18 5 14 34 l-4 28 -8 -28z"/>
<path d="M1850 1855 c0 -8 2 -15 4 -15 2 0 6 7 10 15 3 8 1 15 -4 15 -6 0 -10
-7 -10 -15z"/>
<path d="M6815 1849 c44 -5 114 -11 155 -13 41 -3 113 -10 160 -15 88 -11 248
-26 384 -36 43 -3 82 -7 85 -10 4 -2 41 -7 82 -10 41 -4 83 -8 94 -10 43 -5
122 -17 150 -22 21 -4 27 -2 20 6 -6 6 -31 13 -55 16 -25 3 -85 12 -135 20
-118 19 -238 33 -355 40 -52 3 -111 8 -130 11 -19 2 -60 7 -90 9 -30 2 -122 8
-205 14 -180 13 -280 12 -160 0z"/>
<path d="M7988 1733 c12 -2 30 -2 40 0 9 3 -1 5 -23 4 -22 0 -30 -2 -17 -4z"/>
<path d="M8128 1723 c6 -2 18 -2 25 0 6 3 1 5 -13 5 -14 0 -19 -2 -12 -5z"/>
<path d="M6110 1320 c0 -5 5 -10 10 -10 6 0 10 5 10 10 0 6 -4 10 -10 10 -5 0
-10 -4 -10 -10z"/>
<path d="M7606 1165 c4 -8 10 -12 15 -9 14 8 10 24 -6 24 -9 0 -12 -6 -9 -15z"/>
<path d="M920 1000 c0 -5 5 -10 11 -10 5 0 7 5 4 10 -3 6 -8 10 -11 10 -2 0
-4 -4 -4 -10z"/>
<path d="M9165 730 c-3 -5 -1 -10 4 -10 6 0 11 5 11 10 0 6 -2 10 -4 10 -3 0
-8 -4 -11 -10z"/>
<path d="M9090 700 c0 -5 9 -10 21 -10 11 0 17 5 14 10 -3 6 -13 10 -21 10 -8
0 -14 -4 -14 -10z"/>
<path d="M2065 667 c-8 -19 -2 -31 13 -26 5 2 6 13 2 24 -7 19 -8 19 -15 2z"/>
<path d="M2101 658 c0 -13 3 -17 6 -10 2 6 16 12 29 12 14 0 22 4 19 10 -3 6
-17 10 -31 10 -18 0 -24 -5 -23 -22z"/>
<path d="M2190 670 c0 -5 15 -10 34 -10 19 0 38 5 41 10 4 6 -10 10 -34 10
-23 0 -41 -4 -41 -10z"/>
<path d="M8460 670 c0 -6 7 -10 15 -10 8 0 15 2 15 4 0 2 -7 6 -15 10 -8 3
-15 1 -15 -4z"/>
<path d="M8173 663 c9 -2 23 -2 30 0 6 3 -1 5 -18 5 -16 0 -22 -2 -12 -5z"/>
<path d="M8130 610 c0 -5 9 -10 21 -10 11 0 17 5 14 10 -3 6 -13 10 -21 10 -8
0 -14 -4 -14 -10z"/>
<path d="M8744 609 c26 -6 43 -6 50 1 7 7 -6 10 -39 9 l-50 -1 39 -9z"/>
<path d="M8548 603 c7 -3 16 -2 19 1 4 3 -2 6 -13 5 -11 0 -14 -3 -6 -6z"/>
<path d="M8040 536 c0 -9 7 -16 16 -16 17 0 14 22 -4 28 -7 2 -12 -3 -12 -12z"/>
<path d="M8177 543 c-25 -24 7 -30 49 -8 l29 15 -36 0 c-20 0 -39 -3 -42 -7z"/>
<path d="M8088 533 c7 -3 16 -2 19 1 4 3 -2 6 -13 5 -11 0 -14 -3 -6 -6z"/>
<path d="M7713 523 c-36 -7 -27 -23 12 -23 24 0 35 5 35 15 0 15 -6 16 -47 8z"/>
<path d="M8671 519 c-13 -5 -22 -12 -19 -15 8 -8 58 7 58 17 0 11 -8 11 -39
-2z"/>
<path d="M8478 513 c6 -2 18 -2 25 0 6 3 1 5 -13 5 -14 0 -19 -2 -12 -5z"/>
<path d="M7633 503 c-28 -5 -30 -23 -4 -23 26 0 51 10 51 21 0 9 -8 10 -47 2z"/>
<path d="M8128 503 c7 -3 16 -2 19 1 4 3 -2 6 -13 5 -11 0 -14 -3 -6 -6z"/>
<path d="M7905 490 c-23 -10 -21 -11 22 -15 23 -2 30 1 26 11 -6 16 -19 17
-48 4z"/>
<path d="M8338 470 c-14 -16 -15 -19 -1 -24 26 -10 165 -7 158 4 -3 6 -15 10
-26 10 -11 0 -17 5 -14 10 4 7 -6 10 -27 9 -18 -1 -42 0 -53 3 -12 4 -26 -1
-37 -12z m70 -17 c-10 -2 -26 -2 -35 0 -10 3 -2 5 17 5 19 0 27 -2 18 -5z"/>
<path d="M7850 440 c0 -5 5 -10 11 -10 5 0 7 -4 4 -10 -4 -6 10 -9 37 -8 37 1
38 2 11 5 -36 5 -44 19 -15 26 9 3 2 5 -15 6 -18 0 -33 -3 -33 -9z"/>
<path d="M7948 433 c7 -3 16 -2 19 1 4 3 -2 6 -13 5 -11 0 -14 -3 -6 -6z"/>
<path d="M9793 373 c9 -2 25 -2 35 0 9 3 1 5 -18 5 -19 0 -27 -2 -17 -5z"/>
<path d="M9898 373 c7 -3 16 -2 19 1 4 3 -2 6 -13 5 -11 0 -14 -3 -6 -6z"/>
<path d="M8727 323 c-13 -12 -7 -23 12 -23 26 0 35 16 15 24 -19 7 -19 7 -27
-1z"/>
<path d="M8060 310 c0 -5 11 -10 25 -10 14 0 25 5 25 10 0 6 -11 10 -25 10
-14 0 -25 -4 -25 -10z"/>
<path d="M8673 313 c9 -2 23 -2 30 0 6 3 -1 5 -18 5 -16 0 -22 -2 -12 -5z"/>
<path d="M9060 299 c-25 -4 -65 -10 -90 -14 -25 -3 -63 -10 -85 -15 -22 -5
-59 -10 -82 -10 -24 0 -43 -4 -43 -9 0 -13 55 -17 110 -9 25 3 49 2 55 -3 5
-5 18 -9 30 -8 19 0 19 1 1 8 -14 5 -16 10 -8 15 7 4 12 5 12 2 0 -2 15 0 32
5 18 5 66 9 105 10 40 1 73 5 73 10 0 5 -10 9 -23 9 -13 0 -27 4 -32 8 -6 5
-30 5 -55 1z"/>
<path d="M9206 298 c-6 -4 7 -8 29 -9 71 -3 208 0 213 5 7 8 -229 11 -242 4z"/>
<path d="M9475 300 c-18 -8 -17 -9 8 -9 15 -1 27 4 27 9 0 12 -8 12 -35 0z"/>
<path d="M8594 271 c3 -5 16 -11 28 -14 22 -6 22 -5 4 8 -22 17 -40 20 -32 6z"/>
<path d="M2496 243 c-12 -13 -5 -20 19 -20 14 0 25 1 25 3 0 8 -38 23 -44 17z"/>
<path d="M2620 225 c0 -14 4 -25 9 -25 5 0 7 9 4 19 -4 14 1 21 19 24 21 4 20
4 -4 6 -24 1 -28 -3 -28 -24z"/>
<path d="M8427 243 c-3 -5 10 -9 29 -10 19 -2 34 2 34 7 0 12 -57 14 -63 3z"/>
<path d="M8545 226 c-17 -12 -16 -14 18 -18 31 -3 37 -1 37 14 0 22 -28 24
-55 4z"/>
<path d="M2570 220 c0 -5 5 -10 11 -10 5 0 7 5 4 10 -3 6 -8 10 -11 10 -2 0
-4 -4 -4 -10z"/>
<path d="M1910 180 c0 -5 7 -10 16 -10 8 0 12 5 9 10 -3 6 -10 10 -16 10 -5 0
-9 -4 -9 -10z"/>
<path d="M1973 183 c9 -2 23 -2 30 0 6 3 -1 5 -18 5 -16 0 -22 -2 -12 -5z"/>
<path d="M8198 183 c7 -3 16 -2 19 1 4 3 -2 6 -13 5 -11 0 -14 -3 -6 -6z"/>
<path d="M8538 173 c7 -3 16 -2 19 1 4 3 -2 6 -13 5 -11 0 -14 -3 -6 -6z"/>
<path d="M7991 124 c10 -13 10 -17 -2 -25 -15 -9 -15 -9 19 -13 13 -2 28 -9
34 -17 7 -11 11 -11 15 -1 10 24 19 11 15 -20 -3 -18 -1 -30 3 -26 5 4 14 3
22 -3 9 -9 13 -8 13 0 0 6 -4 11 -10 11 -5 0 -10 4 -10 8 0 5 24 14 53 21 28
6 59 16 67 22 12 8 11 9 -5 5 -57 -13 -117 -17 -110 -6 4 6 1 17 -5 26 -10 11
-16 12 -27 3 -11 -9 -19 -7 -36 10 -28 26 -57 30 -36 5z"/>
<path d="M7928 103 c6 -2 18 -2 25 0 6 3 1 5 -13 5 -14 0 -19 -2 -12 -5z"/>
<path d="M8330 102 c0 -10 41 -35 47 -28 9 8 -17 36 -33 36 -8 0 -14 -3 -14
-8z"/>
<path d="M8270 90 c0 -5 -12 -13 -26 -16 -39 -10 -15 -22 34 -16 48 5 53 14
17 30 -15 7 -25 8 -25 2z"/>
<path d="M8380 45 c0 -9 6 -12 15 -9 8 4 15 10 15 15 0 5 -7 9 -15 9 -8 0 -15
-7 -15 -15z"/>
<path d="M8018 33 c6 -2 18 -2 25 0 6 3 1 5 -13 5 -14 0 -19 -2 -12 -5z"/>
<path d="M8430 23 c0 -15 -2 -16 -10 -3 -5 8 -12 11 -15 8 -11 -11 5 -28 26
-28 20 0 26 24 9 35 -5 3 -10 -2 -10 -12z"/>
<path d="M9060 30 c0 -5 5 -10 11 -10 5 0 7 5 4 10 -3 6 -8 10 -11 10 -2 0 -4
-4 -4 -10z"/>
<path d="M8575 10 c-4 -6 7 -10 27 -9 27 0 30 2 13 9 -27 12 -33 12 -40 0z"/>
<path d="M9098 13 c7 -3 16 -2 19 1 4 3 -2 6 -13 5 -11 0 -14 -3 -6 -6z"/>
</g>
</svg>
